<svg xmlns="http://www.w3.org/2000/svg" viewBox="0 0 640 400" fill="none">
  <defs>
    <radialGradient id="bg" cx="0" cy="0" r="1" gradientTransform="matrix(290 190 -220 336 320 200)" gradientUnits="userSpaceOnUse">
      <stop stop-color="#312060"/>
      <stop offset="1" stop-color="#080e20"/>
    </radialGradient>
    <radialGradient id="planet" cx="0" cy="0" r="1" gradientTransform="matrix(44 58 -58 44 313 173)" gradientUnits="userSpaceOnUse">
      <stop stop-color="#f4a8ff"/>
      <stop offset=".56" stop-color="#9863e8"/>
      <stop offset="1" stop-color="#3150a8"/>
    </radialGradient>
    <linearGradient id="orbit" x1="130" y1="130" x2="510" y2="270" gradientUnits="userSpaceOnUse">
      <stop stop-color="#57e5f2"/>
      <stop offset=".5" stop-color="#d690ff"/>
      <stop offset="1" stop-color="#ff8bc5"/>
    </linearGradient>
    <filter id="glow" x="220" y="90" width="200" height="220" color-interpolation-filters="sRGB" filterUnits="userSpaceOnUse">
      <feGaussianBlur stdDeviation="24"/>
    </filter>
  </defs>
  <path fill="url(#bg)" d="M0 0h640v400H0z"/>
  <circle cx="320" cy="200" r="66" fill="#bc70ff" fill-opacity=".5" filter="url(#glow)"/>
  <g fill="#fff">
    <circle cx="74" cy="80" r="2"/><circle cx="146" cy="310" r="1.5"/><circle cx="518" cy="92" r="2"/>
    <circle cx="570" cy="278" r="1.5"/><circle cx="440" cy="346" r="2"/><circle cx="222" cy="55" r="1.5"/>
    <circle cx="91" cy="230" r="1"/><circle cx="536" cy="183" r="1"/><circle cx="185" cy="145" r="1"/>
  </g>
  <ellipse cx="320" cy="202" rx="206" ry="75" transform="rotate(-18 320 202)" stroke="url(#orbit)" stroke-opacity=".65" stroke-width="2"/>
  <ellipse cx="320" cy="202" rx="157" ry="108" transform="rotate(25 320 202)" stroke="#9d8bff" stroke-opacity=".35"/>
  <ellipse cx="320" cy="202" rx="230" ry="110" transform="rotate(-8 320 202)" stroke="#81d7fa" stroke-opacity=".28"/>
  <circle cx="320" cy="202" r="47" fill="url(#planet)"/>
  <path d="M285 212c16 19 42 26 67 12" stroke="#f9d9ff" stroke-opacity=".55" stroke-width="5" stroke-linecap="round"/>
  <circle cx="320" cy="202" r="57" stroke="#f1caff" stroke-opacity=".22"/>
  <circle cx="463" cy="164" r="10" fill="#ff91ca"/><circle cx="182" cy="245" r="7" fill="#53dbea"/>
  <circle cx="251" cy="104" r="5" fill="#ffe3a6"/><circle cx="399" cy="294" r="6" fill="#be9cff"/>
  <path d="M177 107c-20 30-20 72 0 102-38-5-57-50-37-81 9-13 22-20 37-21Z" fill="#f390c7" fill-opacity=".92"/>
  <path d="M464 249c18 18 19 44 2 63 26-2 41-31 27-52-7-10-17-14-29-11Z" fill="#6ae5df" fill-opacity=".9"/>
</svg>
